# xmcd
#
# Track frame offsets: 
#        150
#        16837
#        33886
#        50683
#        67045
#        81755
#        100985
#        115303
#        141500
#        157407
#        178692
#        198968
#        214967
#
# Disc length: 3038 seconds
#
# Revision: 5
# Processed by: cddbd v1.5.2PL0 Copyright (c) Steve Scherf et al.
# Submitted via: ExactAudioCopy v0.95b4
#
DISCID=c00bdc0d
DTITLE=Jennifer Lopez - This Is Me ... Then
DYEAR=2002
DGENRE=Pop
TTITLE0=Still
TTITLE1=Loving You
TTITLE2=I'm Glad
TTITLE3=The One
TTITLE4=Dear Ben
TTITLE5=All I Have (Featuring LL Cool J)
TTITLE6=Jenny From The Block
TTITLE7=Again
TTITLE8=You Belong To Me
TTITLE9=I've Been Thinkin'
TTITLE10=Baby I Love U !
TTITLE11=The One (Version 2)
TTITLE12=I'm Gonna Be Alright (TrackMasters Remix Featuring Nas)
EXTD=
EXTT0=
EXTT1=
EXTT2=
EXTT3=
EXTT4=
EXTT5=
EXTT6=
EXTT7=
EXTT8=
EXTT9=
EXTT10=
EXTT11=
EXTT12=
PLAYORDER=
